<svg width="22" height="24" viewBox="0 0 22 24" fill="none" xmlns="http://www.w3.org/2000/svg">
<path d="M6.11111 19.2H12.2222C12.5685 19.2 12.859 19.0848 13.0937 18.8544C13.3275 18.6248 13.4444 18.34 13.4444 18C13.4444 17.66 13.3275 17.3748 13.0937 17.1444C12.859 16.9148 12.5685 16.8 12.2222 16.8H6.11111C5.76481 16.8 5.47433 16.9148 5.23967 17.1444C5.00581 17.3748 4.88889 17.66 4.88889 18C4.88889 18.34 5.00581 18.6248 5.23967 18.8544C5.47433 19.0848 5.76481 19.2 6.11111 19.2ZM6.11111 14.4H15.8889C16.2352 14.4 16.5253 14.2848 16.7591 14.0544C16.9938 13.8248 17.1111 13.54 17.1111 13.2C17.1111 12.86 16.9938 12.5748 16.7591 12.3444C16.5253 12.1148 16.2352 12 15.8889 12H6.11111C5.76481 12 5.47433 12.1148 5.23967 12.3444C5.00581 12.5748 4.88889 12.86 4.88889 13.2C4.88889 13.54 5.00581 13.8248 5.23967 14.0544C5.47433 14.2848 5.76481 14.4 6.11111 14.4ZM6.11111 9.6H15.8889C16.2352 9.6 16.5253 9.4848 16.7591 9.2544C16.9938 9.0248 17.1111 8.74 17.1111 8.4C17.1111 8.06 16.9938 7.7748 16.7591 7.5444C16.5253 7.3148 16.2352 7.2 15.8889 7.2H6.11111C5.76481 7.2 5.47433 7.3148 5.23967 7.5444C5.00581 7.7748 4.88889 8.06 4.88889 8.4C4.88889 8.74 5.00581 9.0248 5.23967 9.2544C5.47433 9.4848 5.76481 9.6 6.11111 9.6ZM2.44444 21.6H19.5556V4.8H2.44444V21.6ZM2.44444 24C1.77222 24 1.19656 23.7652 0.717444 23.2956C0.239148 22.8252 0 22.26 0 21.6V4.8C0 4.14 0.239148 3.5748 0.717444 3.1044C1.19656 2.6348 1.77222 2.4 2.44444 2.4H7.57778C7.84259 1.68 8.28585 1.1 8.90756 0.66C9.52844 0.22 10.2259 0 11 0C11.7741 0 12.472 0.22 13.0937 0.66C13.7146 1.1 14.1574 1.68 14.4222 2.4H19.5556C20.2278 2.4 20.8034 2.6348 21.2826 3.1044C21.7609 3.5748 22 4.14 22 4.8V21.6C22 22.26 21.7609 22.8252 21.2826 23.2956C20.8034 23.7652 20.2278 24 19.5556 24H2.44444ZM11 3.9C11.2648 3.9 11.484 3.8148 11.6576 3.6444C11.8303 3.4748 11.9167 3.26 11.9167 3C11.9167 2.74 11.8303 2.5248 11.6576 2.3544C11.484 2.1848 11.2648 2.1 11 2.1C10.7352 2.1 10.5164 2.1848 10.3437 2.3544C10.1701 2.5248 10.0833 2.74 10.0833 3C10.0833 3.26 10.1701 3.4748 10.3437 3.6444C10.5164 3.8148 10.7352 3.9 11 3.9Z" fill="white"/>
</svg>
